<svg width="20" height="21" viewBox="0 0 20 21" fill="none" xmlns="http://www.w3.org/2000/svg">
<path fill-rule="evenodd" clip-rule="evenodd" d="M6.7725 8.50068H3.2275C2.70734 8.49635 2.20676 8.69884 1.83591 9.0636C1.46505 9.42837 1.25429 9.92552 1.25 10.4457V17.8069C1.25962 18.8896 2.1448 19.7597 3.2275 19.7507H6.7725C7.29266 19.755 7.79323 19.5525 8.16409 19.1878C8.53495 18.823 8.74571 18.3258 8.75 17.8057V10.4457C8.74571 9.92552 8.53495 9.42837 8.16409 9.0636C7.79323 8.69884 7.29266 8.49635 6.7725 8.50068Z" stroke="black" stroke-width="1.5" stroke-linecap="round" stroke-linejoin="round"/>
<path fill-rule="evenodd" clip-rule="evenodd" d="M6.7725 1.00075H3.2275C2.16657 0.971327 1.28198 1.80615 1.25 2.867V4.1345C1.28198 5.19536 2.16657 6.03018 3.2275 6.00075H6.7725C7.83343 6.03018 8.71802 5.19536 8.75 4.1345V2.867C8.71802 1.80615 7.83343 0.971327 6.7725 1.00075Z" stroke="black" stroke-width="1.5" stroke-linecap="round" stroke-linejoin="round"/>
<path fill-rule="evenodd" clip-rule="evenodd" d="M13.2275 12.2508H16.7712C17.2916 12.2555 17.7925 12.0531 18.1637 11.6883C18.5348 11.3236 18.7457 10.8262 18.75 10.3058V2.94583C18.7457 2.42567 18.5349 1.92852 18.1641 1.56376C17.7932 1.199 17.2927 0.996503 16.7725 1.00083H13.2275C12.7073 0.996503 12.2068 1.199 11.8359 1.56376C11.4651 1.92852 11.2543 2.42567 11.25 2.94583V10.3058C11.2543 10.826 11.4651 11.3231 11.8359 11.6879C12.2068 12.0527 12.7073 12.2552 13.2275 12.2508Z" stroke="black" stroke-width="1.5" stroke-linecap="round" stroke-linejoin="round"/>
<path fill-rule="evenodd" clip-rule="evenodd" d="M13.2275 19.7508H16.7712C17.8327 19.7809 18.718 18.9459 18.75 17.8845V16.617C18.718 15.5561 17.8334 14.7213 16.7725 14.7508H13.2275C12.1666 14.7213 11.282 15.5561 11.25 16.617V17.8833C11.2813 18.9446 12.1661 19.7802 13.2275 19.7508Z" stroke="black" stroke-width="1.5" stroke-linecap="round" stroke-linejoin="round"/>
</svg>
