<svg width="19" height="20" viewBox="0 0 19 20" fill="none" xmlns="http://www.w3.org/2000/svg">
<path fill-rule="evenodd" clip-rule="evenodd" d="M12.75 1.25H6.5C3.73858 1.25 1.5 3.48858 1.5 6.25V13.75C1.5 16.5114 3.73858 18.75 6.5 18.75H12.75C15.5114 18.75 17.75 16.5114 17.75 13.75V6.25C17.75 3.48858 15.5114 1.25 12.75 1.25Z" stroke="black" stroke-width="1.5" stroke-linecap="round" stroke-linejoin="round"/>
<path d="M13.375 7C13.7892 7 14.125 6.66421 14.125 6.25C14.125 5.83579 13.7892 5.5 13.375 5.5V7ZM5.875 5.5C5.46079 5.5 5.125 5.83579 5.125 6.25C5.125 6.66421 5.46079 7 5.875 7V5.5ZM13.375 10.75C13.7892 10.75 14.125 10.4142 14.125 10C14.125 9.58579 13.7892 9.25 13.375 9.25V10.75ZM5.875 9.25C5.46079 9.25 5.125 9.58579 5.125 10C5.125 10.4142 5.46079 10.75 5.875 10.75V9.25ZM9.625 14.5C10.0392 14.5 10.375 14.1642 10.375 13.75C10.375 13.3358 10.0392 13 9.625 13V14.5ZM5.875 13C5.46079 13 5.125 13.3358 5.125 13.75C5.125 14.1642 5.46079 14.5 5.875 14.5V13ZM13.375 5.5H5.875V7H13.375V5.5ZM13.375 9.25H5.875V10.75H13.375V9.25ZM9.625 13H5.875V14.5H9.625V13Z" fill="black"/>
</svg>
