<svg width="40" height="40" viewBox="0 0 40 40" fill="none" xmlns="http://www.w3.org/2000/svg">
<path d="M15.5303 22.803C15.2374 22.5101 14.7625 22.5101 14.4696 22.803C14.1768 23.0959 14.1768 23.5708 14.4696 23.8637L15.5303 22.803ZM18.3333 26.6667L17.803 27.197C18.0959 27.4899 18.5707 27.4899 18.8636 27.197L18.3333 26.6667ZM25.5303 20.5303C25.8232 20.2374 25.8232 19.7626 25.5303 19.4697C25.2374 19.1768 24.7625 19.1768 24.4696 19.4697L25.5303 20.5303ZM7.60274 15.3437C7.50908 15.7472 7.76024 16.1502 8.16373 16.2439C8.56721 16.3376 8.97023 16.0864 9.06389 15.6829L7.60274 15.3437ZM9.99998 8.33333V7.58333C9.6511 7.58333 9.34829 7.8239 9.2694 8.16374L9.99998 8.33333ZM20 9.08333C20.4142 9.08333 20.75 8.74754 20.75 8.33333C20.75 7.91911 20.4142 7.58333 20 7.58333V9.08333ZM9.08331 15.5133C9.08331 15.0991 8.74753 14.7633 8.33331 14.7633C7.9191 14.7633 7.58331 15.0991 7.58331 15.5133H9.08331ZM8.33331 31.6667H7.58331C7.58331 32.0809 7.9191 32.4167 8.33331 32.4167V31.6667ZM31.6666 31.6667V32.4167C32.0809 32.4167 32.4166 32.0809 32.4166 31.6667H31.6666ZM32.4166 15.5133C32.4166 15.0991 32.0809 14.7633 31.6666 14.7633C31.2524 14.7633 30.9166 15.0991 30.9166 15.5133H32.4166ZM8.33331 14.7633C7.9191 14.7633 7.58331 15.0991 7.58331 15.5133C7.58331 15.9275 7.9191 16.2633 8.33331 16.2633V14.7633ZM20 16.2633C20.4142 16.2633 20.75 15.9275 20.75 15.5133C20.75 15.0991 20.4142 14.7633 20 14.7633V16.2633ZM19.25 15.5133C19.25 15.9275 19.5858 16.2633 20 16.2633C20.4142 16.2633 20.75 15.9275 20.75 15.5133H19.25ZM20.75 8.33333C20.75 7.91911 20.4142 7.58333 20 7.58333C19.5858 7.58333 19.25 7.91911 19.25 8.33333H20.75ZM20 14.7633C19.5858 14.7633 19.25 15.0991 19.25 15.5133C19.25 15.9275 19.5858 16.2633 20 16.2633V14.7633ZM31.6666 16.2633C32.0809 16.2633 32.4166 15.9275 32.4166 15.5133C32.4166 15.0991 32.0809 14.7633 31.6666 14.7633V16.2633ZM20.75 15.5133C20.75 15.0991 20.4142 14.7633 20 14.7633C19.5858 14.7633 19.25 15.0991 19.25 15.5133H20.75ZM19.25 18.3333C19.25 18.7475 19.5858 19.0833 20 19.0833C20.4142 19.0833 20.75 18.7475 20.75 18.3333H19.25ZM20 7.58333C19.5858 7.58333 19.25 7.91911 19.25 8.33333C19.25 8.74754 19.5858 9.08333 20 9.08333V7.58333ZM30 8.33333L30.7306 8.16374C30.6517 7.8239 30.3489 7.58333 30 7.58333V8.33333ZM30.9361 15.6829C31.0297 16.0864 31.4327 16.3376 31.8362 16.2439C32.2397 16.1502 32.4909 15.7472 32.3972 15.3437L30.9361 15.6829ZM14.4696 23.8637L17.803 27.197L18.8636 26.1363L15.5303 22.803L14.4696 23.8637ZM18.8636 27.197L25.5303 20.5303L24.4696 19.4697L17.803 26.1363L18.8636 27.197ZM9.06389 15.6829L10.7306 8.50291L9.2694 8.16374L7.60274 15.3437L9.06389 15.6829ZM9.99998 9.08333H20V7.58333H9.99998V9.08333ZM7.58331 15.5133V31.6667H9.08331V15.5133H7.58331ZM8.33331 32.4167H31.6666V30.9167H8.33331V32.4167ZM32.4166 31.6667V15.5133H30.9166V31.6667H32.4166ZM8.33331 16.2633H20V14.7633H8.33331V16.2633ZM20.75 15.5133V8.33333H19.25V15.5133H20.75ZM20 16.2633H31.6666V14.7633H20V16.2633ZM19.25 15.5133V18.3333H20.75V15.5133H19.25ZM20 9.08333H30V7.58333H20V9.08333ZM29.2694 8.50291L30.9361 15.6829L32.3972 15.3437L30.7306 8.16374L29.2694 8.50291Z" fill="#048F11"/>
</svg>
