<svg width="31" height="31" viewBox="0 0 31 31" fill="none" xmlns="http://www.w3.org/2000/svg">
<path fill-rule="evenodd" clip-rule="evenodd" d="M14.125 30.1667C13.3613 30.1667 12.7098 29.6139 12.5854 28.8604C12.471 28.2508 12.0321 27.7527 11.4417 27.5625C10.9606 27.3974 10.4903 27.2025 10.0334 26.9792C9.48964 26.7011 8.83738 26.7427 8.33335 27.0875C7.72341 27.5261 6.88553 27.4582 6.35419 26.9271L4.28752 24.8604C3.73133 24.3042 3.65906 23.4273 4.11669 22.7875C4.46962 22.2719 4.52045 21.607 4.25002 21.0437C4.07184 20.6524 3.91467 20.2518 3.77919 19.8437C3.58516 19.2007 3.04956 18.7189 2.3896 18.5937C1.59373 18.4666 1.0062 17.783 1.00002 16.9771V14.3917C0.995783 13.4627 1.66676 12.6681 2.58335 12.5167C3.2787 12.3844 3.85932 11.9081 4.12502 11.2521C4.20419 11.0674 4.28752 10.884 4.37502 10.7021C4.7284 10.0218 4.67959 9.20231 4.24794 8.56875C3.70812 7.81849 3.79101 6.78769 4.44377 6.13333L5.96252 4.61458C6.71158 3.86526 7.89295 3.76828 8.75419 4.38542L8.8021 4.41875C9.4452 4.85159 10.2635 4.92997 10.9771 4.62708C11.7405 4.35232 12.3031 3.69633 12.4584 2.9L12.4792 2.82917C12.6507 1.77494 13.5611 1.00043 14.6292 1H16.4625C17.5594 0.999499 18.4956 1.79286 18.675 2.875L18.7084 3.02083C18.8556 3.7837 19.3891 4.41503 20.1167 4.6875C20.8179 4.98847 21.6243 4.90988 22.2542 4.47917L22.3584 4.40417C23.2419 3.76738 24.4569 3.86532 25.2271 4.63542L26.625 6.03542C27.3256 6.73992 27.4137 7.84777 26.8334 8.65417C26.3787 9.32816 26.3207 10.1943 26.6813 10.9229L26.7709 11.1312C27.0629 11.8426 27.6946 12.3583 28.45 12.5021C29.4373 12.663 30.1634 13.5143 30.1667 14.5146V16.8333C30.1664 17.7154 29.5284 18.4679 28.6584 18.6125C27.9427 18.7497 27.3598 19.2679 27.1396 19.9625C27.0424 20.2403 26.934 20.5181 26.8146 20.7958C26.5366 21.4062 26.5983 22.1174 26.9771 22.6708C27.477 23.3663 27.3994 24.3215 26.7938 24.9271L24.8542 26.8687C24.2995 27.4233 23.4248 27.4948 22.7875 27.0375C22.2555 26.6741 21.5664 26.634 20.9959 26.9333C20.5894 27.1347 20.1721 27.3134 19.7459 27.4687C19.15 27.6743 18.7107 28.1844 18.5959 28.8042C18.4744 29.5839 17.8058 30.1608 17.0167 30.1667H14.125Z" stroke="#FFF500" stroke-width="1.5" stroke-linecap="round" stroke-linejoin="round"/>
<path fill-rule="evenodd" clip-rule="evenodd" d="M20.4437 15.5833C20.4437 18.2677 18.2677 20.4438 15.5833 20.4438C12.899 20.4438 10.7229 18.2677 10.7229 15.5833C10.7229 12.899 12.899 10.7229 15.5833 10.7229C18.2677 10.7229 20.4437 12.899 20.4437 15.5833Z" stroke="#FFF500" stroke-width="1.5" stroke-linecap="round" stroke-linejoin="round"/>
</svg>
