<svg width="12" height="10" viewBox="0 0 12 10" fill="none" xmlns="http://www.w3.org/2000/svg">
<path fill-rule="evenodd" clip-rule="evenodd" d="M1.00002 2.125V7.875C0.99816 8.17151 1.11417 8.45662 1.32252 8.6676C1.53087 8.87858 1.81451 8.99815 2.11102 9H3.22202C3.51854 8.99815 3.80217 8.87858 4.01052 8.6676C4.21888 8.45662 4.33488 8.17151 4.33302 7.875V2.125C4.33488 1.82849 4.21888 1.54338 4.01052 1.3324C3.80217 1.12142 3.51854 1.00185 3.22202 1H2.11102C1.81451 1.00185 1.53087 1.12142 1.32252 1.3324C1.11417 1.54338 0.99816 1.82849 1.00002 2.125Z" stroke="black" stroke-width="1.5" stroke-linecap="round" stroke-linejoin="round"/>
<path fill-rule="evenodd" clip-rule="evenodd" d="M7.66701 2.125V7.875C7.66515 8.17151 7.78116 8.45662 7.98951 8.6676C8.19787 8.87858 8.4815 8.99815 8.77801 9H9.88901C10.1855 8.99815 10.4692 8.87858 10.6775 8.6676C10.8859 8.45662 11.0019 8.17151 11 7.875V2.125C11.0019 1.82849 10.8859 1.54338 10.6775 1.3324C10.4692 1.12142 10.1855 1.00185 9.88901 1H8.77801C8.4815 1.00185 8.19787 1.12142 7.98951 1.3324C7.78116 1.54338 7.66515 1.82849 7.66701 2.125V2.125Z" stroke="black" stroke-width="1.5" stroke-linecap="round" stroke-linejoin="round"/>
</svg>
