<svg width="20" height="22" viewBox="0 0 20 22" fill="none" xmlns="http://www.w3.org/2000/svg">
<path fill-rule="evenodd" clip-rule="evenodd" d="M12.5 10.375C12.5 11.7557 11.3807 12.875 10 12.875C8.61929 12.875 7.5 11.7557 7.5 10.375C7.5 8.99429 8.61929 7.875 10 7.875C11.3807 7.875 12.5 8.99429 12.5 10.375Z" stroke="black" stroke-width="1.5" stroke-linecap="round" stroke-linejoin="round"/>
<path d="M12.5 2.75C12.0858 2.75 11.75 3.08579 11.75 3.5C11.75 3.91421 12.0858 4.25 12.5 4.25V2.75ZM7.5 4.25C7.91421 4.25 8.25 3.91421 8.25 3.5C8.25 3.08579 7.91421 2.75 7.5 2.75V4.25ZM13.25 3.5C13.25 3.08579 12.9142 2.75 12.5 2.75C12.0858 2.75 11.75 3.08579 11.75 3.5H13.25ZM11.75 4.75C11.75 5.16421 12.0858 5.5 12.5 5.5C12.9142 5.5 13.25 5.16421 13.25 4.75H11.75ZM11.75 3.5C11.75 3.91421 12.0858 4.25 12.5 4.25C12.9142 4.25 13.25 3.91421 13.25 3.5H11.75ZM13.25 1C13.25 0.585786 12.9142 0.25 12.5 0.25C12.0858 0.25 11.75 0.585786 11.75 1H13.25ZM12.5 4.25C12.9142 4.25 13.25 3.91421 13.25 3.5C13.25 3.08579 12.9142 2.75 12.5 2.75V4.25ZM7.5 2.75C7.08579 2.75 6.75 3.08579 6.75 3.5C6.75 3.91421 7.08579 4.25 7.5 4.25V2.75ZM8.25 3.5C8.25 3.08579 7.91421 2.75 7.5 2.75C7.08579 2.75 6.75 3.08579 6.75 3.5H8.25ZM6.75 4.75C6.75 5.16421 7.08579 5.5 7.5 5.5C7.91421 5.5 8.25 5.16421 8.25 4.75H6.75ZM6.75 3.5C6.75 3.91421 7.08579 4.25 7.5 4.25C7.91421 4.25 8.25 3.91421 8.25 3.5H6.75ZM8.25 1C8.25 0.585786 7.91421 0.25 7.5 0.25C7.08579 0.25 6.75 0.585786 6.75 1H8.25ZM2.05108 18.5242C1.71926 18.7721 1.65126 19.2421 1.89919 19.5739C2.14713 19.9057 2.61711 19.9737 2.94892 19.7258L2.05108 18.5242ZM17.0511 19.7258C17.3829 19.9737 17.8529 19.9057 18.1008 19.5739C18.3487 19.2421 18.2807 18.7721 17.9489 18.5242L17.0511 19.7258ZM12.5 4.25H13.75V2.75H12.5V4.25ZM13.75 4.25C16.0972 4.25 18 6.15279 18 8.5H19.5C19.5 5.32436 16.9256 2.75 13.75 2.75V4.25ZM18 8.5V16H19.5V8.5H18ZM18 16C18 18.3472 16.0972 20.25 13.75 20.25V21.75C16.9256 21.75 19.5 19.1756 19.5 16H18ZM13.75 20.25H6.25V21.75H13.75V20.25ZM6.25 20.25C3.90279 20.25 2 18.3472 2 16H0.5C0.5 19.1756 3.07436 21.75 6.25 21.75V20.25ZM2 16V8.5H0.5V16H2ZM2 8.5C2 6.15279 3.90279 4.25 6.25 4.25V2.75C3.07436 2.75 0.5 5.32436 0.5 8.5H2ZM6.25 4.25H7.5V2.75H6.25V4.25ZM11.75 3.5V4.75H13.25V3.5H11.75ZM13.25 3.5V1H11.75V3.5H13.25ZM12.5 2.75H7.5V4.25H12.5V2.75ZM6.75 3.5V4.75H8.25V3.5H6.75ZM8.25 3.5V1H6.75V3.5H8.25ZM2.94892 19.7258C7.13046 16.6014 12.8695 16.6014 17.0511 19.7258L17.9489 18.5242C13.2349 15.0019 6.76507 15.0019 2.05108 18.5242L2.94892 19.7258Z" fill="black"/>
</svg>
