<svg width="14" height="16" viewBox="0 0 14 16" fill="none" xmlns="http://www.w3.org/2000/svg">
<path fill-rule="evenodd" clip-rule="evenodd" d="M9.75 3.75C9.75 5.26878 8.51878 6.5 7 6.5C5.48122 6.5 4.25 5.26878 4.25 3.75C4.25 2.23122 5.48122 1 7 1C8.51878 1 9.75 2.23122 9.75 3.75Z" stroke="black" stroke-width="1.5" stroke-linecap="round" stroke-linejoin="round"/>
<path d="M2.24967 11.7338C2.23738 11.3197 1.89179 10.994 1.47775 11.0063C1.06372 11.0186 0.738044 11.3642 0.75033 11.7782L2.24967 11.7338ZM4.885 14.95V14.2C4.8779 14.2 4.87081 14.2001 4.86372 14.2003L4.885 14.95ZM9.115 14.95L9.13628 14.2003C9.12919 14.2001 9.1221 14.2 9.115 14.2V14.95ZM13.2497 11.7782C13.262 11.3642 12.9363 11.0186 12.5222 11.0063C12.1082 10.994 11.7626 11.3197 11.7503 11.7338L13.2497 11.7782ZM11.7503 11.6332C11.7626 12.0473 12.1082 12.373 12.5222 12.3607C12.9363 12.3484 13.262 12.0028 13.2497 11.5888L11.7503 11.6332ZM9.115 8.417V9.167C9.1221 9.167 9.12919 9.1669 9.13628 9.1667L9.115 8.417ZM4.885 8.417L4.86372 9.1667C4.87081 9.1669 4.8779 9.167 4.885 9.167V8.417ZM0.75033 11.5888C0.738044 12.0028 1.06372 12.3484 1.47775 12.3607C1.89179 12.373 2.23738 12.0473 2.24967 11.6332L0.75033 11.5888ZM0.75033 11.7782C0.8165 14.0081 2.67632 15.763 4.90628 15.6997L4.86372 14.2003C3.4611 14.2401 2.29129 13.1363 2.24967 11.7338L0.75033 11.7782ZM4.885 15.7H9.115V14.2H4.885V15.7ZM9.09372 15.6997C11.3237 15.763 13.1835 14.0081 13.2497 11.7782L11.7503 11.7338C11.7087 13.1363 10.5389 14.2401 9.13628 14.2003L9.09372 15.6997ZM13.2497 11.5888C13.1835 9.35888 11.3237 7.604 9.09372 7.6673L9.13628 9.1667C10.5389 9.12688 11.7087 10.2307 11.7503 11.6332L13.2497 11.5888ZM9.115 7.667H4.885V9.167H9.115V7.667ZM4.90628 7.6673C2.67632 7.604 0.8165 9.35888 0.75033 11.5888L2.24967 11.6332C2.29129 10.2307 3.4611 9.12688 4.86372 9.1667L4.90628 7.6673Z" fill="black"/>
</svg>
